<svg width="23" height="25" viewBox="0 0 23 25" fill="none" xmlns="http://www.w3.org/2000/svg">
<path d="M1.375 10.25C1.375 6.00763 1.375 3.88587 2.6935 2.5685C4.01087 1.25 6.13263 1.25 10.375 1.25H12.625C16.8674 1.25 18.9891 1.25 20.3065 2.5685C21.625 3.88587 21.625 6.00763 21.625 10.25V14.75C21.625 18.9924 21.625 21.1141 20.3065 22.4315C18.9891 23.75 16.8674 23.75 12.625 23.75H10.375C6.13263 23.75 4.01087 23.75 2.6935 22.4315C1.375 21.1141 1.375 18.9924 1.375 14.75V10.25Z" stroke="#637381" stroke-width="2"/>
<path d="M7 10.25H16M7 14.75H12.625" stroke="#637381" stroke-width="1.5" stroke-linecap="round"/>
</svg>
