<svg width="23" height="23" viewBox="0 0 23 23" fill="none" xmlns="http://www.w3.org/2000/svg">
<path d="M21.625 11.5C21.6283 13.5101 21.0305 15.4753 19.9083 17.143C18.9828 18.5233 17.7315 19.6543 16.2649 20.436C14.7984 21.2178 13.1619 21.6261 11.5 21.625C9.83814 21.6261 8.20159 21.2178 6.73507 20.436C5.26855 19.6543 4.01723 18.5233 3.09175 17.143C2.21057 15.8294 1.64939 14.3277 1.45319 12.7582C1.257 11.1887 1.43124 9.59507 1.96197 8.10504C2.49269 6.61501 3.36512 5.27005 4.50933 4.17797C5.65353 3.08589 7.03768 2.27707 8.55082 1.81635C10.064 1.35563 11.664 1.25583 13.2226 1.52494C14.7813 1.79405 16.2552 2.42459 17.5263 3.36602C18.7973 4.30744 19.8302 5.53356 20.5419 6.94609C21.2537 8.35861 21.6246 9.91825 21.625 11.5Z" stroke="#637381" stroke-width="1.5"/>
<mask id="path-2-inside-1_2_3410" fill="white">
<path d="M12.9062 8.125C12.9062 8.90125 12.2762 9.53125 11.5 9.53125V11.2188C12.3205 11.2188 13.1074 10.8928 13.6876 10.3126C14.2678 9.73242 14.5938 8.94551 14.5938 8.125H12.9062ZM11.5 9.53125C10.7238 9.53125 10.0938 8.90125 10.0938 8.125H8.40625C8.40625 8.94551 8.7322 9.73242 9.31239 10.3126C9.89258 10.8928 10.6795 11.2188 11.5 11.2188V9.53125ZM10.0938 8.125C10.0938 7.34875 10.7238 6.71875 11.5 6.71875V5.03125C10.6795 5.03125 9.89258 5.3572 9.31239 5.93739C8.7322 6.51758 8.40625 7.30449 8.40625 8.125H10.0938ZM11.5 6.71875C12.2762 6.71875 12.9062 7.34875 12.9062 8.125H14.5938C14.5938 7.30449 14.2678 6.51758 13.6876 5.93739C13.1074 5.3572 12.3205 5.03125 11.5 5.03125V6.71875ZM3.81175 18.088L3.00288 17.8472L2.87125 18.2882L3.17163 18.637L3.81175 18.088ZM19.1882 18.088L19.8295 18.6381L20.1287 18.2894L19.9971 17.8472L19.1882 18.088ZM8.125 15.7188H14.875V14.0312H8.125V15.7188ZM8.125 14.0312C6.97424 14.0313 5.85421 14.4027 4.93139 15.0902C4.00856 15.7777 3.33222 16.7446 3.00288 17.8472L4.62063 18.3287C4.84622 17.5746 5.30905 16.9133 5.94037 16.4431C6.57169 15.9729 7.33782 15.7189 8.125 15.7188V14.0312ZM11.5 20.7812C10.1606 20.7828 8.8368 20.4937 7.61997 19.9339C6.40314 19.3742 5.32224 18.5571 4.45188 17.539L3.17163 18.637C4.20039 19.8396 5.4777 20.8059 6.9155 21.4673C8.3533 22.1286 9.9174 22.4703 11.5 22.4688V20.7812ZM14.875 15.7188C16.5288 15.7188 17.9294 16.819 18.3794 18.3287L19.9971 17.8472C19.6678 16.7446 18.9914 15.7777 18.0686 15.0902C17.1458 14.4027 16.0258 14.0313 14.875 14.0312V15.7188ZM18.5481 17.539C17.6778 18.5571 16.5969 19.3742 15.38 19.9339C14.1632 20.4937 12.8394 20.7828 11.5 20.7812V22.4688C13.0826 22.4703 14.6467 22.1286 16.0845 21.4673C17.5223 20.8059 18.8007 19.8407 19.8295 18.6381L18.5481 17.539Z"/>
</mask>
<path d="M12.9062 8.125C12.9062 8.90125 12.2762 9.53125 11.5 9.53125V11.2188C12.3205 11.2188 13.1074 10.8928 13.6876 10.3126C14.2678 9.73242 14.5938 8.94551 14.5938 8.125H12.9062ZM11.5 9.53125C10.7238 9.53125 10.0938 8.90125 10.0938 8.125H8.40625C8.40625 8.94551 8.7322 9.73242 9.31239 10.3126C9.89258 10.8928 10.6795 11.2188 11.5 11.2188V9.53125ZM10.0938 8.125C10.0938 7.34875 10.7238 6.71875 11.5 6.71875V5.03125C10.6795 5.03125 9.89258 5.3572 9.31239 5.93739C8.7322 6.51758 8.40625 7.30449 8.40625 8.125H10.0938ZM11.5 6.71875C12.2762 6.71875 12.9062 7.34875 12.9062 8.125H14.5938C14.5938 7.30449 14.2678 6.51758 13.6876 5.93739C13.1074 5.3572 12.3205 5.03125 11.5 5.03125V6.71875ZM3.81175 18.088L3.00288 17.8472L2.87125 18.2882L3.17163 18.637L3.81175 18.088ZM19.1882 18.088L19.8295 18.6381L20.1287 18.2894L19.9971 17.8472L19.1882 18.088ZM8.125 15.7188H14.875V14.0312H8.125V15.7188ZM8.125 14.0312C6.97424 14.0313 5.85421 14.4027 4.93139 15.0902C4.00856 15.7777 3.33222 16.7446 3.00288 17.8472L4.62063 18.3287C4.84622 17.5746 5.30905 16.9133 5.94037 16.4431C6.57169 15.9729 7.33782 15.7189 8.125 15.7188V14.0312ZM11.5 20.7812C10.1606 20.7828 8.8368 20.4937 7.61997 19.9339C6.40314 19.3742 5.32224 18.5571 4.45188 17.539L3.17163 18.637C4.20039 19.8396 5.4777 20.8059 6.9155 21.4673C8.3533 22.1286 9.9174 22.4703 11.5 22.4688V20.7812ZM14.875 15.7188C16.5288 15.7188 17.9294 16.819 18.3794 18.3287L19.9971 17.8472C19.6678 16.7446 18.9914 15.7777 18.0686 15.0902C17.1458 14.4027 16.0258 14.0313 14.875 14.0312V15.7188ZM18.5481 17.539C17.6778 18.5571 16.5969 19.3742 15.38 19.9339C14.1632 20.4937 12.8394 20.7828 11.5 20.7812V22.4688C13.0826 22.4703 14.6467 22.1286 16.0845 21.4673C17.5223 20.8059 18.8007 19.8407 19.8295 18.6381L18.5481 17.539Z" fill="#637381"/>
<path d="M11 9.53125V11.2188H12V9.53125H11ZM14.5938 7.625H12.9062V8.625H14.5938V7.625ZM10.0938 7.625H8.40625V8.625H10.0938V7.625ZM12 6.71875V5.03125H11V6.71875H12ZM15.375 15.7188V14.0312H14.375V15.7188H15.375ZM7.625 14.0312V15.7188H8.625V14.0312H7.625ZM12 22.4688V20.7812H11V22.4688H12ZM14.5938 8.125H15.5938H14.5938ZM8.40625 8.125H7.40625H8.40625ZM3.81175 18.088L4.46276 18.8471L5.8552 17.6529L4.09702 17.1296L3.81175 18.088ZM3.00288 17.8472L2.0447 17.5611L2.04465 17.5612L3.00288 17.8472ZM2.87125 18.2882L1.91302 18.0022L1.75658 18.5264L2.11355 18.9409L2.87125 18.2882ZM19.1882 18.088L18.903 17.1296L17.1451 17.6528L18.5371 18.847L19.1882 18.088ZM20.1287 18.2894L20.8877 18.9406L21.2428 18.5267L21.0872 18.004L20.1287 18.2894ZM19.9971 17.8472L20.9556 17.5619L20.9553 17.5611L19.9971 17.8472ZM8.125 15.7188L8.125 14.7188H8.12482L8.125 15.7188ZM14.875 14.0312L14.875 13.0312H14.875V14.0312ZM8.125 14.0312V13.0312H8.12495L8.125 14.0312ZM4.62063 18.3287L4.33536 19.2872L5.29248 19.5721L5.57868 18.6153L4.62063 18.3287ZM11.5 20.7812L11.5011 19.7812L11.4989 19.7813L11.5 20.7812ZM4.45188 17.539L5.21197 16.8892L4.56113 16.1279L3.80086 16.7799L4.45188 17.539ZM11.5 22.4688L11.501 21.4687L11.499 21.4688L11.5 22.4688ZM18.3794 18.3287L17.421 18.6144L17.7066 19.5724L18.6646 19.2872L18.3794 18.3287ZM18.5481 17.539L19.1992 16.78L18.4389 16.1278L17.788 16.8892L18.5481 17.539ZM11.9062 8.125C11.9062 8.34897 11.724 8.53125 11.5 8.53125V10.5312C12.8285 10.5312 13.9062 9.45353 13.9062 8.125H11.9062ZM11.5 12.2188C12.5857 12.2188 13.627 11.7874 14.3947 11.0197L12.9805 9.6055C12.5879 9.99816 12.0553 10.2188 11.5 10.2188V12.2188ZM14.3947 11.0197C15.1624 10.252 15.5938 9.21073 15.5938 8.125H13.5938C13.5938 8.6803 13.3732 9.21285 12.9805 9.6055L14.3947 11.0197ZM11.5 8.53125C11.276 8.53125 11.0938 8.34897 11.0938 8.125H9.09375C9.09375 9.45353 10.1715 10.5312 11.5 10.5312V8.53125ZM7.40625 8.125C7.40625 9.21073 7.83755 10.252 8.60528 11.0197L10.0195 9.6055C9.62684 9.21285 9.40625 8.6803 9.40625 8.125H7.40625ZM8.60528 11.0197C9.37301 11.7874 10.4143 12.2188 11.5 12.2188V10.2188C10.9447 10.2188 10.4121 9.99816 10.0195 9.6055L8.60528 11.0197ZM11.0938 8.125C11.0938 7.90103 11.276 7.71875 11.5 7.71875V5.71875C10.1715 5.71875 9.09375 6.79647 9.09375 8.125H11.0938ZM11.5 4.03125C10.4143 4.03125 9.37301 4.46255 8.60528 5.23028L10.0195 6.6445C10.4121 6.25184 10.9447 6.03125 11.5 6.03125V4.03125ZM8.60528 5.23028C7.83755 5.99801 7.40625 7.03927 7.40625 8.125H9.40625C9.40625 7.5697 9.62684 7.03715 10.0195 6.6445L8.60528 5.23028ZM11.5 7.71875C11.724 7.71875 11.9062 7.90103 11.9062 8.125H13.9062C13.9062 6.79647 12.8285 5.71875 11.5 5.71875V7.71875ZM15.5938 8.125C15.5938 7.03927 15.1624 5.99801 14.3947 5.23028L12.9805 6.6445C13.3732 7.03715 13.5938 7.5697 13.5938 8.125H15.5938ZM14.3947 5.23028C13.627 4.46255 12.5857 4.03125 11.5 4.03125V6.03125C12.0553 6.03125 12.5879 6.25184 12.9805 6.6445L14.3947 5.23028ZM4.09702 17.1296L3.28814 16.8888L2.71761 18.8057L3.52648 19.0464L4.09702 17.1296ZM2.04465 17.5612L1.91302 18.0022L3.82948 18.5743L3.9611 18.1333L2.04465 17.5612ZM2.11355 18.9409L2.41392 19.2896L3.92933 17.9844L3.62895 17.6356L2.11355 18.9409ZM3.82264 19.3961L4.46276 18.8471L3.16074 17.3289L2.52061 17.8779L3.82264 19.3961ZM18.5371 18.847L19.1784 19.3971L20.4806 17.8791L19.8394 17.329L18.5371 18.847ZM20.5884 19.2893L20.8877 18.9406L19.3698 17.6382L19.0706 17.9869L20.5884 19.2893ZM21.0872 18.004L20.9556 17.5619L19.0387 18.1326L19.1703 18.5747L21.0872 18.004ZM19.7119 16.8888L18.903 17.1296L19.4735 19.0464L20.2824 18.8057L19.7119 16.8888ZM8.125 16.7188H14.875V14.7188H8.125V16.7188ZM14.875 13.0312H8.125V15.0312H14.875V13.0312ZM8.12495 13.0312C6.75893 13.0313 5.42939 13.4722 4.33395 14.2883L5.52882 15.8921C6.27902 15.3332 7.18954 15.0313 8.12505 15.0312L8.12495 13.0312ZM4.33395 14.2883C3.23851 15.1044 2.43565 16.2522 2.0447 17.5611L3.96105 18.1334C4.22878 17.2371 4.77862 16.451 5.52882 15.8921L4.33395 14.2883ZM2.71761 18.8057L4.33536 19.2872L4.90589 17.3703L3.28814 16.8888L2.71761 18.8057ZM5.57868 18.6153C5.74261 18.0673 6.07893 17.5868 6.53769 17.2451L5.34305 15.6411C4.53917 16.2398 3.94984 17.0819 3.66257 18.0422L5.57868 18.6153ZM6.53769 17.2451C6.99644 16.9034 7.55317 16.7189 8.12518 16.7188L8.12482 14.7188C7.12248 14.7189 6.14693 15.0424 5.34305 15.6411L6.53769 17.2451ZM11.4989 19.7813C10.3041 19.7826 9.12329 19.5248 8.03789 19.0255L7.20205 20.8424C8.55031 21.4626 10.0171 21.783 11.5011 21.7812L11.4989 19.7813ZM8.03789 19.0255C6.95248 18.5262 5.98833 17.7973 5.21197 16.8892L3.69178 18.1888C4.65616 19.3168 5.8538 20.2222 7.20205 20.8424L8.03789 19.0255ZM3.80086 16.7799L2.52061 17.8779L3.82264 19.3961L5.10289 18.2981L3.80086 16.7799ZM2.41173 19.2871C3.53423 20.5992 4.92813 21.6539 6.49763 22.3758L7.33337 20.5588C6.02727 19.958 4.86655 19.08 3.93152 17.9869L2.41173 19.2871ZM6.49763 22.3758C8.06679 23.0975 9.77378 23.4704 11.501 23.4688L11.499 21.4688C10.061 21.4701 8.63982 21.1597 7.33337 20.5588L6.49763 22.3758ZM14.875 16.7188C16.0748 16.7188 17.094 17.5172 17.421 18.6144L19.3377 18.0431C18.7647 16.1208 16.9827 14.7188 14.875 14.7188V16.7188ZM18.6646 19.2872L20.2824 18.8057L19.7119 16.8888L18.0941 17.3703L18.6646 19.2872ZM20.9553 17.5611C20.5643 16.2522 19.7615 15.1044 18.666 14.2883L17.4712 15.8921C18.2214 16.451 18.7712 17.2371 19.039 18.1334L20.9553 17.5611ZM18.666 14.2883C17.5706 13.4722 16.2411 13.0313 14.875 13.0312L14.875 15.0312C15.8105 15.0313 16.721 15.3332 17.4712 15.8921L18.666 14.2883ZM17.788 16.8892C17.0117 17.7973 16.0475 18.5262 14.9621 19.0255L15.7979 20.8424C17.1462 20.2222 18.3438 19.3168 19.3082 18.1888L17.788 16.8892ZM14.9621 19.0255C13.8767 19.5248 12.6959 19.7826 11.5011 19.7813L11.4989 21.7812C12.9829 21.783 14.4497 21.4626 15.7979 20.8424L14.9621 19.0255ZM11.499 23.4688C13.2262 23.4704 14.9332 23.0975 16.5024 22.3758L15.6666 20.5588C14.3602 21.1597 12.939 21.4701 11.501 21.4688L11.499 23.4688ZM16.5024 22.3758C18.0713 21.6542 19.4664 20.6009 20.5894 19.2882L19.0696 17.9881C18.135 19.0806 16.9734 19.9577 15.6666 20.5588L16.5024 22.3758ZM20.4806 17.8791L19.1992 16.78L17.8971 18.298L19.1784 19.3971L20.4806 17.8791Z" fill="#637381" mask="url(#path-2-inside-1_2_3410)"/>
</svg>
