<svg width="24" height="32" viewBox="0 0 24 32" fill="none" xmlns="http://www.w3.org/2000/svg">
<g id="Prescription">
<rect width="24" height="32" rx="5" fill="#1890FF"/>
<g id="layer1">
<g id="text2985">
<path id="path2997" d="M10.4527 6C10.2563 6.00001 9.93996 6.00541 9.50435 6.01767C8.32631 6.06063 7.391 6.08248 6.69769 6.08246C6.07186 6.08248 5.19643 6.05793 4.07363 6.00884L4 6.07363V6.53306L4.07363 6.59785C4.724 6.6224 5.13312 6.65799 5.29878 6.70093C5.46444 6.74389 5.57623 6.79837 5.63452 6.86585C5.6928 6.93336 5.73649 7.06687 5.7641 7.26933C5.79171 7.47181 5.80803 7.92462 5.81417 8.62406L5.83184 10.4176V14.6791L5.82301 16.6199C5.81687 17.2764 5.7922 17.702 5.75233 17.8922C5.71244 18.0824 5.66066 18.205 5.59624 18.2633C5.53181 18.3216 5.40652 18.3708 5.21632 18.4076C5.02612 18.4444 4.64424 18.4744 4.07363 18.4989L4 18.5549V19.0143L4.07363 19.0879C5.6382 19.0388 6.51632 19.0143 6.70653 19.0143C6.95195 19.0143 7.29284 19.0197 7.72847 19.032C8.77765 19.0688 9.31758 19.0879 9.34826 19.0879L9.42189 19.0143V18.5549L9.34826 18.4989C8.69789 18.4744 8.28877 18.4389 8.12311 18.3929C7.95745 18.3469 7.84566 18.2895 7.78737 18.2221C7.72908 18.1546 7.68552 18.0211 7.65484 17.8186C7.62416 17.6161 7.60502 17.166 7.59889 16.4727L7.59005 14.6791V10.4176C7.59005 8.25177 7.63644 7.10098 7.72847 6.96598C8.29908 6.78807 8.90429 6.70094 9.54853 6.70093C10.4689 6.70094 11.1997 6.9082 11.7397 7.32234C12.2796 7.7365 12.5496 8.34723 12.5496 9.15712C12.5496 10.0591 12.2496 10.7654 11.6484 11.2746C11.0471 11.7839 10.2153 12.0374 9.15389 12.0374C8.97595 12.0374 8.72783 12.0293 8.40879 12.0109L8.31749 12.2966C9.42189 13.5544 10.5017 14.9177 11.5571 16.3902C12.4228 17.6011 13.0609 18.4599 13.4861 18.9848L13.7747 19.4678L11.2626 22.999C10.6183 23.8948 10.1847 24.4839 9.96379 24.7631C9.7429 25.0422 9.56301 25.2167 9.42189 25.2873C9.28077 25.3579 9.00246 25.396 8.59138 25.4021L8.51775 25.4758V25.9175L8.60021 26C8.98675 25.9755 9.2977 25.9647 9.53085 25.9647C9.75786 25.9647 10.0715 25.9755 10.4703 26C11.6668 23.9937 12.7056 22.382 13.5892 21.1671L14.2606 20.2394L17.0585 24.3714C17.3714 24.9113 17.7123 25.4539 18.0804 26C18.7124 25.9755 19.1841 25.9647 19.497 25.9647C19.7363 25.9647 20.1481 25.9755 20.731 26L20.8046 25.9264V25.4758L20.731 25.4021C20.3383 25.396 20.0875 25.3686 19.977 25.3226C19.8666 25.2766 19.7192 25.1377 19.5382 24.9015C19.3572 24.6653 19.12 24.3081 18.8255 23.8295L15.3827 18.8611C15.3757 18.8276 15.3628 18.7942 15.3474 18.7581L16.0189 17.8657L17.7299 15.545C18.3435 14.7167 18.7498 14.1986 18.9492 13.99C19.1486 13.7814 19.3123 13.6505 19.4381 13.5983C19.5639 13.5462 19.8202 13.5107 20.2067 13.4923L20.2804 13.4186V13.0063L20.2067 12.9209C19.6852 12.9393 19.3988 12.9504 19.3497 12.9504C19.2393 12.9504 18.9259 12.9393 18.4044 12.9209L14.8879 18.0807C14.7502 17.9043 14.5547 17.6206 14.2518 17.2237C13.7671 16.5886 13.3145 15.986 12.8912 15.4154L11.5836 13.6866C11.1357 13.0976 10.8247 12.6831 10.6529 12.4438C11.5794 12.2659 12.3076 11.9985 12.8352 11.6457C13.3629 11.2929 13.761 10.8704 14.0309 10.3734C14.3009 9.87646 14.4373 9.36918 14.4373 8.85378C14.4373 8.08071 14.162 7.41267 13.6098 6.84818C13.0576 6.28372 12.005 6.00001 10.4527 6Z" fill="white"/>
</g>
</g>
</g>
</svg>
